#!OML:ASF F:\VICON\USERDATA\INSTALL\rory3\rory3.ASF
:FULLY-SPECIFIED
:DEGREES
1103
root -0.119861 17.7943 11.825 3.7104 -15.1401 5.041
lowerback 1.741 0.0258848 -6.39786
upperback -0.435557 -0.109331 0.19186
thorax -1.41566 0.000661072 3.79066
lowerneck -16.1179 -7.50767 -14.0971
upperneck 23.2586 -8.23515 5.68076
head 11.0533 -4.36728 3.16807
rclavicle -3.47873e-016 -2.78299e-015
rhumerus -30.2176 -9.54736 -80.7501
rradius 31.1398
rwrist 22.7969
rhand -19.6646 2.37564
rfingers 7.12502
rthumb 6.66362 -27.4995
lclavicle -3.47873e-016 -2.78299e-015
lhumerus -33.7029 14.3229 78.2812
lradius 28.5315
lwrist -5.40543
lhand -15.1534 25.0265
lfingers 7.12502
lthumb 11.0168 54.7174
rfemur -13.6257 4.99577 13.3988
rtibia 38.9482
rfoot -17.6941 3.25432
rtoes -1.00968
lfemur -12.5971 2.15149 -26.8103
ltibia 18.6396
lfoot -7.13696 -6.90375
ltoes -7.86704
1104
root -0.101003 17.7942 11.8495 3.65749 -15.5058 5.12592
lowerback 1.77817 0.0310942 -6.56839
upperback -0.420777 -0.108472 0.201011
thorax -1.42138 0.00239165 3.89613
lowerneck -16.2333 -7.48509 -14.1034
upperneck 23.183 -8.17393 5.65907
head 11.0398 -4.33882 3.16753
rclavicle -8.77634e-014 -7.55382e-015
rhumerus -30.096 -9.69364 -80.7774
rradius 31.2636
rwrist 22.7506
rhand -19.641 2.33438
rfingers 7.12502
rthumb 6.68642 -27.5401
lclavicle -8.77634e-014 -7.55382e-015
lhumerus -33.8007 14.6141 78.1685
lradius 28.4059
lwrist -5.69196
lhand -16.1744 24.0427
lfingers 7.12502
lthumb 10.0319 53.7836
rfemur -14.1517 4.66317 13.2528
rtibia 39.9035
rfoot -17.4627 3.10208
rtoes -1.04699
lfemur -12.3798 2.4277 -27
ltibia 18.4184
lfoot -7.12404 -6.83353
ltoes -7.73942
1105
root -0.0837264 17.799 11.8713 3.60262 -15.8129 5.03835
lowerback 1.87795 -0.00962394 -6.62808
upperback -0.377848 -0.169205 0.264469
thorax -1.42579 -0.0280721 3.99762
lowerneck -16.4055 -7.42267 -13.9418
upperneck 23.0864 -8.0615 5.51835
head 11.0094 -4.28482 3.10331
rclavicle 6.4605e-015 1.82882e-014
rhumerus -29.9822 -9.51525 -80.9345
rradius 31.4972
rwrist 22.3784
rhand -19.5571 2.435
rfingers 7.12502
rthumb 6.76739 -27.4368
lclavicle 6.4605e-015 1.82882e-014
lhumerus -33.758 15.0107 77.9761
lradius 28.2247
lwrist -6.13317
lhand -16.0555 24.3414
lfingers 7.12502
lthumb 10.1467 54.0767
rfemur -14.6071 4.38173 13.3347
rtibia 40.8342
rfoot -17.4663 2.64389
rtoes -1.73084
lfemur -12.1658 2.86284 -27.0089
ltibia 18.25
lfoot -7.1111 -6.94232
ltoes -7.51433
1106
root -0.063932 17.8086 11.896 3.60951 -16.1029 4.93053
lowerback 1.85179 -0.0529615 -6.59049
upperback -0.31866 -0.221411 0.303952
thorax -1.3436 -0.058501 4.01875
lowerneck -16.6384 -7.37262 -13.7224
upperneck 23.0398 -7.95458 5.29737
head 11.004 -4.23749 2.9982
rclavicle -5.15349e-014 1.63003e-014
rhumerus -29.8683 -9.46099 -81.0946
rradius 31.7359
rwrist 22.066
rhand -19.5309 2.38956
rfingers 7.12502
rthumb 6.79269 -27.4815
lclavicle -5.15349e-014 1.63003e-014
lhumerus -33.6195 15.176 77.8918
lradius 27.9767
lwrist -6.04894
lhand -15.1332 25.3493
lfingers 7.12502
lthumb 11.0362 55.0391
rfemur -15.1168 3.86742 13.4729
rtibia 41.741
rfoot -17.5241 1.86001
rtoes -4.56667
lfemur -12.0203 3.00986 -26.9933
ltibia 18.1618
lfoot -7.17761 -6.8071
ltoes -7.74436
1107
root -0.0443998 17.8102 11.921 3.62721 -16.3031 4.8981
lowerback 1.82445 -0.145899 -6.65638
upperback -0.299663 -0.34298 0.383127
thorax -1.29344 -0.120567 4.14131
lowerneck -16.7392 -7.34912 -13.7934
upperneck 22.9168 -7.87028 5.25988
head 10.9708 -4.2054 3.00614
rclavicle 1.81888e-014 1.23246e-014
rhumerus -29.7986 -9.24699 -81.1984
rradius 32.0163
rwrist 21.7488
rhand -19.4129 1.97334
rfingers 7.12502
rthumb 6.90662 -27.894
lclavicle 1.81888e-014 1.23246e-014
lhumerus -33.5076 15.3452 77.9013
lradius 27.6197
lwrist -5.77674
lhand -16.081 24.5649
lfingers 7.12502
lthumb 10.122 54.3014
rfemur -15.6195 3.27355 13.5476
rtibia 42.5856
rfoot -17.5609 0.956479
rtoes -7.4933
lfemur -11.9471 3.04186 -27.0457
ltibia 18.1416
lfoot -7.26972 -6.68255
ltoes -7.67097
1108
root -0.0262129 17.8055 11.9432 3.57706 -16.4494 4.79083
lowerback 1.9393 -0.233599 -6.63753
upperback -0.25818 -0.465514 0.460586
thorax -1.29976 -0.182474 4.21522
lowerneck -16.8507 -7.40934 -13.9803
upperneck 22.7855 -7.92469 5.42883
head 10.9658 -4.22167 3.08537
rclavicle 2.84262e-014 1.51076e-014
rhumerus -29.7196 -9.00542 -81.3435
rradius 32.3171
rwrist 21.4084
rhand -19.373 1.55251
rfingers 7.12502
rthumb 6.94514 -28.3136
lclavicle 2.84262e-014 1.51076e-014
lhumerus -33.3634 15.4386 77.8451
lradius 27.3551
lwrist -5.9238
lhand -14.333 26.283
lfingers 7.12502
lthumb 11.808 55.9302
rfemur -16.0007 2.80824 13.7184
rtibia 43.3539
rfoot -17.6901 0.147178
rtoes -9.3078
lfemur -11.8254 3.1471 -27.0062
ltibia 18.1667
lfoot -7.39647 -6.64884
ltoes -7.78684
1109
root -0.0104407 17.8067 11.9647 3.5173 -16.6813 4.69898
lowerback 2.09401 -0.290894 -6.64246
upperback -0.245778 -0.552566 0.499586
thorax -1.36285 -0.223958 4.26236
lowerneck -16.9069 -7.41705 -13.9793
upperneck 22.6266 -7.9288 5.459
head 10.9189 -4.2157 3.09328
rclavicle -4.87022e-014 6.75868e-015
rhumerus -29.7156 -8.92058 -81.4939
rradius 32.625
rwrist 21.1791
rhand -19.1429 1.55119
rfingers 7.12502
rthumb 7.16724 -28.3074
lclavicle -4.87022e-014 6.75868e-015
lhumerus -33.2893 15.5923 77.6798
lradius 27.1216
lwrist -6.25392
lhand -13.3763 27.0749
lfingers 7.12502
lthumb 12.7304 56.6669
rfemur -16.3819 2.43106 13.8904
rtibia 44.0216
rfoot -17.9647 -0.549147
rtoes -10.369
lfemur -11.7222 3.23975 -26.9791
ltibia 18.2837
lfoot -7.5392 -6.47036
ltoes -7.90651
